<mxfile host="app.diagrams.net" modified="2023-04-15T18:10:23.762Z" agent="Mozilla/5.0 (Windows NT 10.0; Win64; x64) AppleWebKit/537.36 (KHTML, like Gecko) Chrome/111.0.0.0 Safari/537.36 Edg/111.0.1661.41" etag="enbhgwpjevrh7V0a6i0-" version="21.1.1" type="github">
  <diagram id="C5RBs43oDa-KdzZeNtuy" name="Page-1">
    <mxGraphModel dx="2355" dy="845" grid="1" gridSize="10" guides="1" tooltips="1" connect="1" arrows="1" fold="1" page="1" pageScale="1" pageWidth="827" pageHeight="1169" math="0" shadow="0">
      <root>
        <mxCell id="WIyWlLk6GJQsqaUBKTNV-0" />
        <mxCell id="WIyWlLk6GJQsqaUBKTNV-1" parent="WIyWlLk6GJQsqaUBKTNV-0" />
        <mxCell id="WIyWlLk6GJQsqaUBKTNV-4" value="Yes" style="rounded=0;html=1;jettySize=auto;orthogonalLoop=1;fontSize=11;endArrow=block;endFill=0;endSize=8;strokeWidth=1;shadow=0;labelBackgroundColor=none;edgeStyle=orthogonalEdgeStyle;" parent="WIyWlLk6GJQsqaUBKTNV-1" source="WIyWlLk6GJQsqaUBKTNV-6" target="WIyWlLk6GJQsqaUBKTNV-10" edge="1">
          <mxGeometry y="20" relative="1" as="geometry">
            <mxPoint as="offset" />
          </mxGeometry>
        </mxCell>
        <mxCell id="WIyWlLk6GJQsqaUBKTNV-5" value="No" style="edgeStyle=orthogonalEdgeStyle;rounded=0;html=1;jettySize=auto;orthogonalLoop=1;fontSize=11;endArrow=block;endFill=0;endSize=8;strokeWidth=1;shadow=0;labelBackgroundColor=none;entryX=1;entryY=0.5;entryDx=0;entryDy=0;" parent="WIyWlLk6GJQsqaUBKTNV-1" source="WIyWlLk6GJQsqaUBKTNV-6" target="Dk93sufzhrqWhK0cHk2C-8" edge="1">
          <mxGeometry x="0.0196" y="30" relative="1" as="geometry">
            <mxPoint as="offset" />
            <mxPoint x="320" y="210" as="targetPoint" />
            <Array as="points">
              <mxPoint x="510" y="140" />
              <mxPoint x="510" y="995" />
            </Array>
          </mxGeometry>
        </mxCell>
        <mxCell id="WIyWlLk6GJQsqaUBKTNV-6" value="¿Desea continuar al juego?" style="rhombus;whiteSpace=wrap;html=1;shadow=0;fontFamily=Helvetica;fontSize=12;align=center;strokeWidth=1;spacing=6;spacingTop=-4;" parent="WIyWlLk6GJQsqaUBKTNV-1" vertex="1">
          <mxGeometry x="170" y="100" width="100" height="80" as="geometry" />
        </mxCell>
        <mxCell id="Dk93sufzhrqWhK0cHk2C-67" value="" style="edgeStyle=orthogonalEdgeStyle;rounded=0;orthogonalLoop=1;jettySize=auto;html=1;" edge="1" parent="WIyWlLk6GJQsqaUBKTNV-1" source="WIyWlLk6GJQsqaUBKTNV-10" target="Dk93sufzhrqWhK0cHk2C-65">
          <mxGeometry relative="1" as="geometry" />
        </mxCell>
        <mxCell id="Dk93sufzhrqWhK0cHk2C-69" value="" style="edgeStyle=orthogonalEdgeStyle;rounded=0;orthogonalLoop=1;jettySize=auto;html=1;entryX=0.5;entryY=0;entryDx=0;entryDy=0;" edge="1" parent="WIyWlLk6GJQsqaUBKTNV-1" source="WIyWlLk6GJQsqaUBKTNV-10" target="Dk93sufzhrqWhK0cHk2C-70">
          <mxGeometry relative="1" as="geometry">
            <mxPoint x="310" y="190" as="targetPoint" />
          </mxGeometry>
        </mxCell>
        <mxCell id="WIyWlLk6GJQsqaUBKTNV-10" value="¿Desea pagar con tarjeta?" style="rhombus;whiteSpace=wrap;html=1;shadow=0;fontFamily=Helvetica;fontSize=12;align=center;strokeWidth=1;spacing=6;spacingTop=-4;" parent="WIyWlLk6GJQsqaUBKTNV-1" vertex="1">
          <mxGeometry x="170" y="210" width="100" height="80" as="geometry" />
        </mxCell>
        <mxCell id="Dk93sufzhrqWhK0cHk2C-21" value="" style="edgeStyle=orthogonalEdgeStyle;rounded=0;orthogonalLoop=1;jettySize=auto;html=1;" edge="1" parent="WIyWlLk6GJQsqaUBKTNV-1" source="Dk93sufzhrqWhK0cHk2C-0" target="WIyWlLk6GJQsqaUBKTNV-6">
          <mxGeometry relative="1" as="geometry" />
        </mxCell>
        <mxCell id="Dk93sufzhrqWhK0cHk2C-0" value="Inicio&amp;nbsp;" style="rounded=1;whiteSpace=wrap;html=1;" vertex="1" parent="WIyWlLk6GJQsqaUBKTNV-1">
          <mxGeometry x="160" y="20" width="120" height="50" as="geometry" />
        </mxCell>
        <mxCell id="Dk93sufzhrqWhK0cHk2C-8" value="Fin" style="rounded=1;whiteSpace=wrap;html=1;" vertex="1" parent="WIyWlLk6GJQsqaUBKTNV-1">
          <mxGeometry x="160" y="970" width="120" height="50" as="geometry" />
        </mxCell>
        <mxCell id="Dk93sufzhrqWhK0cHk2C-10" value="&amp;nbsp; &amp;nbsp; &amp;nbsp; &amp;nbsp; &amp;nbsp; &amp;nbsp; &amp;nbsp; Entradas&lt;span style=&quot;white-space: pre;&quot;&gt;	&lt;/span&gt;&lt;span style=&quot;white-space: pre;&quot;&gt;	&lt;/span&gt;&lt;span style=&quot;white-space: pre;&quot;&gt;	&lt;/span&gt;&lt;span style=&quot;white-space: pre;&quot;&gt;	&lt;span style=&quot;white-space: pre;&quot;&gt;	&lt;/span&gt;&lt;span style=&quot;white-space: pre;&quot;&gt;	&lt;span style=&quot;white-space: pre;&quot;&gt;	&lt;span style=&quot;white-space: pre;&quot;&gt;	&lt;/span&gt;&lt;/span&gt;&lt;/span&gt;&lt;/span&gt;Procesos&lt;span style=&quot;white-space: pre;&quot;&gt;	&lt;/span&gt;&lt;span style=&quot;white-space: pre;&quot;&gt;	&lt;/span&gt;&lt;span style=&quot;white-space: pre;&quot;&gt;	&lt;/span&gt;&lt;span style=&quot;white-space: pre;&quot;&gt;	&lt;/span&gt;&lt;span style=&quot;white-space: pre;&quot;&gt;	&lt;/span&gt;&lt;span style=&quot;white-space: pre;&quot;&gt;	&lt;span style=&quot;white-space: pre;&quot;&gt;	&lt;span style=&quot;white-space: pre;&quot;&gt;	&lt;/span&gt;&lt;/span&gt;&lt;/span&gt;Salidas&lt;span style=&quot;white-space: pre;&quot;&gt;	&lt;/span&gt;" style="swimlane;childLayout=stackLayout;resizeParent=1;resizeParentMax=0;horizontal=1;startSize=20;horizontalStack=0;html=1;align=left;" vertex="1" parent="WIyWlLk6GJQsqaUBKTNV-1">
          <mxGeometry x="-570" y="100" width="670" height="530" as="geometry" />
        </mxCell>
        <mxCell id="Dk93sufzhrqWhK0cHk2C-11" value="Salida 1" style="swimlane;startSize=20;horizontal=0;html=1;" vertex="1" parent="Dk93sufzhrqWhK0cHk2C-10">
          <mxGeometry y="20" width="670" height="120" as="geometry">
            <mxRectangle y="20" width="545" height="30" as="alternateBounds" />
          </mxGeometry>
        </mxCell>
        <mxCell id="Dk93sufzhrqWhK0cHk2C-54" value="Es mayor a 21 &lt;br&gt;(Autorización &lt;br&gt;para jugar)" style="text;html=1;align=center;verticalAlign=middle;resizable=0;points=[];autosize=1;strokeColor=none;fillColor=none;" vertex="1" parent="Dk93sufzhrqWhK0cHk2C-11">
          <mxGeometry x="540" y="35" width="100" height="60" as="geometry" />
        </mxCell>
        <mxCell id="Dk93sufzhrqWhK0cHk2C-59" value=". Nombre completo, &lt;br&gt;Número de identificación, &lt;br&gt;Fecha de nacimiento, &lt;br&gt;Nacionalidad," style="text;html=1;align=center;verticalAlign=middle;resizable=0;points=[];autosize=1;strokeColor=none;fillColor=none;" vertex="1" parent="Dk93sufzhrqWhK0cHk2C-11">
          <mxGeometry x="10" y="25" width="160" height="70" as="geometry" />
        </mxCell>
        <mxCell id="Dk93sufzhrqWhK0cHk2C-60" value="Cálculo de edad&amp;nbsp;" style="text;html=1;align=center;verticalAlign=middle;resizable=0;points=[];autosize=1;strokeColor=none;fillColor=none;" vertex="1" parent="Dk93sufzhrqWhK0cHk2C-11">
          <mxGeometry x="267.5" y="45" width="110" height="30" as="geometry" />
        </mxCell>
        <mxCell id="Dk93sufzhrqWhK0cHk2C-12" value="Salida 2" style="swimlane;startSize=20;horizontal=0;html=1;" vertex="1" parent="Dk93sufzhrqWhK0cHk2C-10">
          <mxGeometry y="140" width="670" height="130" as="geometry" />
        </mxCell>
        <mxCell id="Dk93sufzhrqWhK0cHk2C-29" value="Iconós" style="text;html=1;align=center;verticalAlign=middle;resizable=0;points=[];autosize=1;strokeColor=none;fillColor=none;" vertex="1" parent="Dk93sufzhrqWhK0cHk2C-12">
          <mxGeometry x="560" y="45" width="60" height="30" as="geometry" />
        </mxCell>
        <mxCell id="Dk93sufzhrqWhK0cHk2C-58" value="Generar iconós aleatorios" style="text;html=1;align=center;verticalAlign=middle;resizable=0;points=[];autosize=1;strokeColor=none;fillColor=none;" vertex="1" parent="Dk93sufzhrqWhK0cHk2C-12">
          <mxGeometry x="242.5" y="45" width="160" height="30" as="geometry" />
        </mxCell>
        <mxCell id="Dk93sufzhrqWhK0cHk2C-61" value=".&amp;nbsp;&lt;br&gt;Autorización para apostar, &lt;br&gt;Tipo de pago, &lt;br&gt;Monto inicial, &lt;br&gt;No. tarjeta, &lt;br&gt;Nombre del titular,&amp;nbsp;&lt;br&gt;Fecha de expiración &lt;br&gt;de la tarjeta, &lt;br&gt;CVV." style="text;html=1;align=center;verticalAlign=middle;resizable=0;points=[];autosize=1;strokeColor=none;fillColor=none;" vertex="1" parent="Dk93sufzhrqWhK0cHk2C-12">
          <mxGeometry x="20" y="-10" width="160" height="140" as="geometry" />
        </mxCell>
        <mxCell id="Dk93sufzhrqWhK0cHk2C-13" value="Salida 3" style="swimlane;startSize=20;horizontal=0;html=1;" vertex="1" parent="Dk93sufzhrqWhK0cHk2C-10">
          <mxGeometry y="270" width="670" height="140" as="geometry" />
        </mxCell>
        <mxCell id="Dk93sufzhrqWhK0cHk2C-57" value="Probabilidades,&lt;br&gt;Ganancia" style="text;html=1;align=center;verticalAlign=middle;resizable=0;points=[];autosize=1;strokeColor=none;fillColor=none;" vertex="1" parent="Dk93sufzhrqWhK0cHk2C-13">
          <mxGeometry x="535" y="50" width="110" height="40" as="geometry" />
        </mxCell>
        <mxCell id="Dk93sufzhrqWhK0cHk2C-62" value="Iconós" style="text;html=1;align=center;verticalAlign=middle;resizable=0;points=[];autosize=1;strokeColor=none;fillColor=none;" vertex="1" parent="Dk93sufzhrqWhK0cHk2C-13">
          <mxGeometry x="60" y="55" width="60" height="30" as="geometry" />
        </mxCell>
        <mxCell id="Dk93sufzhrqWhK0cHk2C-63" value="Cálculo de probabilidaes" style="text;html=1;align=center;verticalAlign=middle;resizable=0;points=[];autosize=1;strokeColor=none;fillColor=none;" vertex="1" parent="Dk93sufzhrqWhK0cHk2C-13">
          <mxGeometry x="260" y="55" width="150" height="30" as="geometry" />
        </mxCell>
        <mxCell id="Dk93sufzhrqWhK0cHk2C-33" value="Salida 4" style="swimlane;startSize=20;horizontal=0;html=1;" vertex="1" parent="Dk93sufzhrqWhK0cHk2C-10">
          <mxGeometry y="410" width="670" height="120" as="geometry" />
        </mxCell>
        <mxCell id="Dk93sufzhrqWhK0cHk2C-55" value="Monto final" style="text;html=1;align=center;verticalAlign=middle;resizable=0;points=[];autosize=1;strokeColor=none;fillColor=none;" vertex="1" parent="Dk93sufzhrqWhK0cHk2C-33">
          <mxGeometry x="540" y="45" width="80" height="30" as="geometry" />
        </mxCell>
        <mxCell id="Dk93sufzhrqWhK0cHk2C-16" value="&amp;nbsp;Impuesto de 40%,&amp;nbsp;" style="text;html=1;align=center;verticalAlign=middle;resizable=0;points=[];autosize=1;strokeColor=none;fillColor=none;" vertex="1" parent="Dk93sufzhrqWhK0cHk2C-33">
          <mxGeometry x="265" y="45" width="130" height="30" as="geometry" />
        </mxCell>
        <mxCell id="Dk93sufzhrqWhK0cHk2C-64" value="Probabilidades, &lt;br&gt;Apostar ganancias" style="text;html=1;align=center;verticalAlign=middle;resizable=0;points=[];autosize=1;strokeColor=none;fillColor=none;" vertex="1" parent="Dk93sufzhrqWhK0cHk2C-33">
          <mxGeometry x="30" y="35" width="120" height="40" as="geometry" />
        </mxCell>
        <mxCell id="Dk93sufzhrqWhK0cHk2C-43" value="" style="endArrow=none;html=1;rounded=0;entryX=0.25;entryY=0;entryDx=0;entryDy=0;exitX=0.25;exitY=1;exitDx=0;exitDy=0;" edge="1" parent="Dk93sufzhrqWhK0cHk2C-10" source="Dk93sufzhrqWhK0cHk2C-33" target="Dk93sufzhrqWhK0cHk2C-10">
          <mxGeometry width="50" height="50" relative="1" as="geometry">
            <mxPoint x="140" y="280" as="sourcePoint" />
            <mxPoint x="190" y="230" as="targetPoint" />
          </mxGeometry>
        </mxCell>
        <mxCell id="Dk93sufzhrqWhK0cHk2C-44" value="" style="endArrow=none;html=1;rounded=0;entryX=0.75;entryY=0;entryDx=0;entryDy=0;exitX=0.75;exitY=1;exitDx=0;exitDy=0;" edge="1" parent="Dk93sufzhrqWhK0cHk2C-10" source="Dk93sufzhrqWhK0cHk2C-33" target="Dk93sufzhrqWhK0cHk2C-10">
          <mxGeometry width="50" height="50" relative="1" as="geometry">
            <mxPoint x="146" y="510" as="sourcePoint" />
            <mxPoint x="146" y="30" as="targetPoint" />
          </mxGeometry>
        </mxCell>
        <mxCell id="Dk93sufzhrqWhK0cHk2C-91" value="" style="edgeStyle=orthogonalEdgeStyle;rounded=0;orthogonalLoop=1;jettySize=auto;html=1;" edge="1" parent="WIyWlLk6GJQsqaUBKTNV-1" source="Dk93sufzhrqWhK0cHk2C-65" target="Dk93sufzhrqWhK0cHk2C-90">
          <mxGeometry relative="1" as="geometry" />
        </mxCell>
        <mxCell id="Dk93sufzhrqWhK0cHk2C-65" value="Monto inicial" style="shape=parallelogram;perimeter=parallelogramPerimeter;whiteSpace=wrap;html=1;fixedSize=1;" vertex="1" parent="WIyWlLk6GJQsqaUBKTNV-1">
          <mxGeometry x="160" y="390" width="120" height="60" as="geometry" />
        </mxCell>
        <mxCell id="Dk93sufzhrqWhK0cHk2C-73" value="" style="edgeStyle=orthogonalEdgeStyle;rounded=0;orthogonalLoop=1;jettySize=auto;html=1;" edge="1" parent="WIyWlLk6GJQsqaUBKTNV-1" source="Dk93sufzhrqWhK0cHk2C-70" target="Dk93sufzhrqWhK0cHk2C-72">
          <mxGeometry relative="1" as="geometry" />
        </mxCell>
        <mxCell id="Dk93sufzhrqWhK0cHk2C-70" value="No. Tarjeta" style="shape=parallelogram;perimeter=parallelogramPerimeter;whiteSpace=wrap;html=1;fixedSize=1;" vertex="1" parent="WIyWlLk6GJQsqaUBKTNV-1">
          <mxGeometry x="310" y="180" width="120" height="60" as="geometry" />
        </mxCell>
        <mxCell id="Dk93sufzhrqWhK0cHk2C-75" value="" style="edgeStyle=orthogonalEdgeStyle;rounded=0;orthogonalLoop=1;jettySize=auto;html=1;" edge="1" parent="WIyWlLk6GJQsqaUBKTNV-1" source="Dk93sufzhrqWhK0cHk2C-72" target="Dk93sufzhrqWhK0cHk2C-74">
          <mxGeometry relative="1" as="geometry" />
        </mxCell>
        <mxCell id="Dk93sufzhrqWhK0cHk2C-72" value="Nombre del titular" style="shape=parallelogram;perimeter=parallelogramPerimeter;whiteSpace=wrap;html=1;fixedSize=1;" vertex="1" parent="WIyWlLk6GJQsqaUBKTNV-1">
          <mxGeometry x="310" y="250" width="120" height="60" as="geometry" />
        </mxCell>
        <mxCell id="Dk93sufzhrqWhK0cHk2C-87" value="" style="edgeStyle=orthogonalEdgeStyle;rounded=0;orthogonalLoop=1;jettySize=auto;html=1;" edge="1" parent="WIyWlLk6GJQsqaUBKTNV-1" source="Dk93sufzhrqWhK0cHk2C-74" target="Dk93sufzhrqWhK0cHk2C-86">
          <mxGeometry relative="1" as="geometry" />
        </mxCell>
        <mxCell id="Dk93sufzhrqWhK0cHk2C-74" value="Fecha de expiración" style="shape=parallelogram;perimeter=parallelogramPerimeter;whiteSpace=wrap;html=1;fixedSize=1;" vertex="1" parent="WIyWlLk6GJQsqaUBKTNV-1">
          <mxGeometry x="295" y="320" width="150" height="60" as="geometry" />
        </mxCell>
        <mxCell id="Dk93sufzhrqWhK0cHk2C-83" value="No" style="text;html=1;strokeColor=none;fillColor=none;align=center;verticalAlign=middle;whiteSpace=wrap;rounded=0;" vertex="1" parent="WIyWlLk6GJQsqaUBKTNV-1">
          <mxGeometry x="210" y="335" width="60" height="30" as="geometry" />
        </mxCell>
        <mxCell id="Dk93sufzhrqWhK0cHk2C-85" value="Yes" style="text;html=1;strokeColor=none;fillColor=none;align=center;verticalAlign=middle;whiteSpace=wrap;rounded=0;" vertex="1" parent="WIyWlLk6GJQsqaUBKTNV-1">
          <mxGeometry x="250" y="190" width="60" height="30" as="geometry" />
        </mxCell>
        <mxCell id="Dk93sufzhrqWhK0cHk2C-88" value="" style="edgeStyle=orthogonalEdgeStyle;rounded=0;orthogonalLoop=1;jettySize=auto;html=1;" edge="1" parent="WIyWlLk6GJQsqaUBKTNV-1" source="Dk93sufzhrqWhK0cHk2C-86" target="Dk93sufzhrqWhK0cHk2C-65">
          <mxGeometry relative="1" as="geometry" />
        </mxCell>
        <mxCell id="Dk93sufzhrqWhK0cHk2C-86" value="CVV" style="shape=parallelogram;perimeter=parallelogramPerimeter;whiteSpace=wrap;html=1;fixedSize=1;" vertex="1" parent="WIyWlLk6GJQsqaUBKTNV-1">
          <mxGeometry x="327.5" y="390" width="85" height="60" as="geometry" />
        </mxCell>
        <mxCell id="Dk93sufzhrqWhK0cHk2C-93" value="" style="edgeStyle=orthogonalEdgeStyle;rounded=0;orthogonalLoop=1;jettySize=auto;html=1;" edge="1" parent="WIyWlLk6GJQsqaUBKTNV-1" source="Dk93sufzhrqWhK0cHk2C-90" target="Dk93sufzhrqWhK0cHk2C-92">
          <mxGeometry relative="1" as="geometry" />
        </mxCell>
        <mxCell id="Dk93sufzhrqWhK0cHk2C-95" style="edgeStyle=orthogonalEdgeStyle;rounded=0;orthogonalLoop=1;jettySize=auto;html=1;exitX=1;exitY=0.5;exitDx=0;exitDy=0;entryX=1;entryY=0.75;entryDx=0;entryDy=0;" edge="1" parent="WIyWlLk6GJQsqaUBKTNV-1" source="Dk93sufzhrqWhK0cHk2C-90" target="Dk93sufzhrqWhK0cHk2C-92">
          <mxGeometry relative="1" as="geometry">
            <Array as="points">
              <mxPoint x="320" y="530" />
              <mxPoint x="320" y="629" />
            </Array>
          </mxGeometry>
        </mxCell>
        <mxCell id="Dk93sufzhrqWhK0cHk2C-90" value="Generar un número aleatorio entre el 0, 3" style="whiteSpace=wrap;html=1;" vertex="1" parent="WIyWlLk6GJQsqaUBKTNV-1">
          <mxGeometry x="160" y="500" width="120" height="60" as="geometry" />
        </mxCell>
        <mxCell id="Dk93sufzhrqWhK0cHk2C-99" value="" style="edgeStyle=orthogonalEdgeStyle;rounded=0;orthogonalLoop=1;jettySize=auto;html=1;" edge="1" parent="WIyWlLk6GJQsqaUBKTNV-1" source="Dk93sufzhrqWhK0cHk2C-92" target="Dk93sufzhrqWhK0cHk2C-98">
          <mxGeometry relative="1" as="geometry" />
        </mxCell>
        <mxCell id="Dk93sufzhrqWhK0cHk2C-92" value="Comparar número con variable string en el vector" style="whiteSpace=wrap;html=1;" vertex="1" parent="WIyWlLk6GJQsqaUBKTNV-1">
          <mxGeometry x="160" y="584.5" width="120" height="60" as="geometry" />
        </mxCell>
        <mxCell id="Dk93sufzhrqWhK0cHk2C-96" value="Repetir 4 veces" style="text;html=1;strokeColor=none;fillColor=none;align=center;verticalAlign=middle;whiteSpace=wrap;rounded=0;" vertex="1" parent="WIyWlLk6GJQsqaUBKTNV-1">
          <mxGeometry x="327.5" y="560" width="60" height="30" as="geometry" />
        </mxCell>
        <mxCell id="Dk93sufzhrqWhK0cHk2C-106" value="" style="edgeStyle=orthogonalEdgeStyle;rounded=0;orthogonalLoop=1;jettySize=auto;html=1;" edge="1" parent="WIyWlLk6GJQsqaUBKTNV-1" source="Dk93sufzhrqWhK0cHk2C-98" target="Dk93sufzhrqWhK0cHk2C-104">
          <mxGeometry relative="1" as="geometry" />
        </mxCell>
        <mxCell id="Dk93sufzhrqWhK0cHk2C-98" value="Icóno 1" style="shape=parallelogram;perimeter=parallelogramPerimeter;whiteSpace=wrap;html=1;fixedSize=1;" vertex="1" parent="WIyWlLk6GJQsqaUBKTNV-1">
          <mxGeometry x="160" y="660" width="120" height="60" as="geometry" />
        </mxCell>
        <mxCell id="Dk93sufzhrqWhK0cHk2C-110" value="" style="edgeStyle=orthogonalEdgeStyle;rounded=0;orthogonalLoop=1;jettySize=auto;html=1;" edge="1" parent="WIyWlLk6GJQsqaUBKTNV-1" source="Dk93sufzhrqWhK0cHk2C-103" target="Dk93sufzhrqWhK0cHk2C-8">
          <mxGeometry relative="1" as="geometry" />
        </mxCell>
        <mxCell id="Dk93sufzhrqWhK0cHk2C-103" value="Icóno 4" style="shape=parallelogram;perimeter=parallelogramPerimeter;whiteSpace=wrap;html=1;fixedSize=1;" vertex="1" parent="WIyWlLk6GJQsqaUBKTNV-1">
          <mxGeometry x="160" y="880" width="120" height="60" as="geometry" />
        </mxCell>
        <mxCell id="Dk93sufzhrqWhK0cHk2C-107" value="" style="edgeStyle=orthogonalEdgeStyle;rounded=0;orthogonalLoop=1;jettySize=auto;html=1;" edge="1" parent="WIyWlLk6GJQsqaUBKTNV-1" source="Dk93sufzhrqWhK0cHk2C-104" target="Dk93sufzhrqWhK0cHk2C-105">
          <mxGeometry relative="1" as="geometry" />
        </mxCell>
        <mxCell id="Dk93sufzhrqWhK0cHk2C-104" value="Icóno 2" style="shape=parallelogram;perimeter=parallelogramPerimeter;whiteSpace=wrap;html=1;fixedSize=1;" vertex="1" parent="WIyWlLk6GJQsqaUBKTNV-1">
          <mxGeometry x="160" y="730" width="120" height="60" as="geometry" />
        </mxCell>
        <mxCell id="Dk93sufzhrqWhK0cHk2C-108" value="" style="edgeStyle=orthogonalEdgeStyle;rounded=0;orthogonalLoop=1;jettySize=auto;html=1;" edge="1" parent="WIyWlLk6GJQsqaUBKTNV-1" source="Dk93sufzhrqWhK0cHk2C-105" target="Dk93sufzhrqWhK0cHk2C-103">
          <mxGeometry relative="1" as="geometry" />
        </mxCell>
        <mxCell id="Dk93sufzhrqWhK0cHk2C-105" value="Icóno 3" style="shape=parallelogram;perimeter=parallelogramPerimeter;whiteSpace=wrap;html=1;fixedSize=1;" vertex="1" parent="WIyWlLk6GJQsqaUBKTNV-1">
          <mxGeometry x="160" y="800" width="120" height="60" as="geometry" />
        </mxCell>
      </root>
    </mxGraphModel>
  </diagram>
</mxfile>
